<svg xmlns="http://www.w3.org/2000/svg" viewBox="0 0 37.7 36.7" enable-background="new 0 0 37.7 36.7"><path fill="#fff" stroke="#000" stroke-miterlimit="10" d="M37.1 10.4C37.1 5 32.7.6 27.3.6c-3.6 0-6.7 2-8.4 4.8C17.2 2.5 14.1.6 10.5.6 5 .6.6 5 .6 10.4c0 2.7 1.1 5.2 2.9 7l15.4 15.4 15.4-15.4c1.7-1.8 2.8-4.2 2.8-7z"/><circle fill="#fff" stroke="#000" stroke-miterlimit="10" cx="26.6" cy="25.7" r="11"/><path fill="#F4AE10" d="M31.6 23.7h-3v-3c0-.6-.4-1-1-1h-2c-.6 0-1 .4-1 1v3h-3c-.6 0-1 .4-1 1v2c0 .6.4 1 1 1h3v3c0 .6.4 1 1 1h2c.6 0 1-.4 1-1v-3h3c.6 0 1-.4 1-1v-2c0-.5-.5-1-1-1z"/></svg>